<?xml version="1.0" encoding="UTF-8"?>
<!-- Created with Inkscape (http://www.inkscape.org/) -->
<svg width="1160" height="300" version="1.1" viewBox="0 0 306.92 79.375" xml:space="preserve" xmlns="http://www.w3.org/2000/svg" xmlns:xlink="http://www.w3.org/1999/xlink"><defs><linearGradient id="linearGradient12942" x1="50.735" x2="127.8" y1="113.79" y2="59.349" gradientUnits="userSpaceOnUse"><stop stop-color="#051f28" offset=".14441"/><stop stop-color="#285662" offset=".24574"/></linearGradient><linearGradient id="linearGradient14406" x1="52.225" x2="57.571" y1="145.12" y2="140.62" gradientUnits="userSpaceOnUse"><stop stop-color="#ff6733" offset=".25"/><stop stop-color="#faac0f" offset="1"/></linearGradient><radialGradient id="radialGradient15168" cx="143.35" cy="155.66" r="24.313" gradientTransform="matrix(3.1847 .14646 -.048941 1.0642 -305.55 -43.814)" gradientUnits="userSpaceOnUse"><stop stop-color="#faac0f" offset=".78409"/><stop stop-color="#fbcc68" offset="1"/></radialGradient><radialGradient id="radialGradient15904" cx="163.29" cy="313.26" r="29.219" gradientTransform="matrix(4.2095 -.46056 .15994 1.4619 -576.25 -193.38)" gradientUnits="userSpaceOnUse"><stop stop-color="#ff4508" offset=".9053"/><stop stop-color="#ff6733" offset="1"/></radialGradient></defs><g transform="translate(-59.792 -23.727)"><g transform="translate(-18.889)"><g transform="translate(-3.5388)"><g transform="matrix(.57082 0 0 .57082 68 -11.815)"><path d="m53.313 118.95v17.15s-3.2642 0.0169-4.9512 4.209c-1.687 4.192 1.687 7.6172 1.687 7.6172s-0.56235 4.2943-0.89464 8.972c-0.3323 4.6777-0.43454 7.3872-0.40898 7.7195 0.02556 0.3323 0.48566 2.4028 2.5306 2.7862 2.0449 0.38342 2.9651-1.4059 3.1951-2.6839s0.21727-1.9043 0.33869-1.8851c0.12142 0.0192-0.20654 3.2734 1.9262 4.141 2.1328 0.86757 4.1933-0.56031 4.3017-2.4401 0.10845-1.8798-0.46994-6.4887-0.65068-9.3626-0.18074-2.8738-0.81335-7.4648-0.81335-7.4648s3.1269-2.8377 1.952-6.9044c-1.1748-4.0668-4.9343-4.844-4.9343-4.844v-17.058z" fill="#051f28"/><path d="m67.597 178.21s-4.4081-11.126-0.72095-25.585c3.6872-14.46 12.218-23.641 12.218-23.641s-1.1929-1.7713-1.6629-4.0848c-0.46993-2.3135-0.54224-3.7595-0.54224-3.7595s-19.137-1.746-21.406-1.8673c-3.5739-0.18906-7.019 0.12834-7.3257-1.7632-0.30673-1.8915 1.3036-2.8373 4.371-5.2145 3.0673-2.3772 35.044-26.533 36.731-27.785 1.687-1.2525 2.7914-2.6674 4.4784-2.7441 1.687-0.07668 0.88184 0.0078 3.3219 0.44156 2.4401 0.43379 46.325 8.8746 48.042 9.1638 1.7171 0.28919 2.6931 1.034 2.7835 1.6304 0.0904 0.59646 0.5603 1.5507-2.2593 3.3581-2.8196 1.8074-18.418 12.815-18.418 12.815l0.21689 1.6086s19.296-1.9901 33.866 1.2817 22.494 7.4639 27.606 16.001c5.1122 8.5374 3.1696 21.114 0.76684 25.919-2.4028 4.8055-4.0898 1.3292-4.601 0.30673-0.51122-1.0224-0.81795-1.687-0.81795-1.687s-11.298-0.20449-27.35 2.4028c-16.052 2.6072-26.993 4.1409-26.993 4.1409s3.4252 3.3741 5.8791 8.0773c2.4539 4.7033 4.4988 10.991 4.4988 10.991s36.757 0 38.188 0.0511c1.4314 0.0511 1.5209 1.4059 1.5081 1.9043-0.0128 0.49844-0.60069 1.6998-1.687 1.7126-1.0864 0.0128-118.94 0-120.24 0-1.3036 0-1.2908-1.4442-1.2908-1.7893 0-0.34507 0.26839-1.7893 1.3164-1.7893s9.5215-0.0959 9.5215-0.0959z" fill="#051f28"/><path d="m114.4 124.74s-20.743-2.9651-30.201 10.736-1.0736 32.565 9.5088 38.24c10.582 5.6746 20.653 5.2145 26.43 1.9938s7.3105-9.5599 6.697-12.985-1.5848-6.1858-1.5848-6.1858-8.0773-0.51122-11.554-7.4128c-3.4763-6.9015-3.3741-15.234-1.687-19.324s2.39-5.0611 2.39-5.0611z" fill="#fffde5"/><path d="m112.71 146.89s-4.3353 6.3197-0.88451 13.247c3.4508 6.9271 10.557 7.8217 11.733 7.9495 1.1758 0.1278 2.6592 0.32271 2.6592 0.32271 1.3459-3.9634 0.91567-6.8834-0.96784-11.88-6.8344-1.5336-9.6379-3.2383-12.539-9.6392z" fill="#eed8a0"/><circle cx="54.931" cy="142.67" r="3.5658" fill="url(#linearGradient14406)"/><path d="m81.755 124.75 1.8391 3.3302s7.3925-5.6799 20.117-7.4151c12.724-1.7352 20.93-0.28919 20.93-0.28919l1.5906-3.6691s-11.411-1.7328-23.221 0.15878c-11.809 1.8915-21.256 7.8844-21.256 7.8844z" fill="#ff6733"/><path d="m125.39 118.56s-2.9012 5.7704-3.8725 11.88c-0.97132 6.1091 0.0256 10.148 0.0256 10.148 9.5898-1.6598 14.236-1.1695 18.61-0.25057 5.9688 1.2541 13.502 0.67926 22.458 1.685 0.16374-8.7838 0.33564-14.514 7.108-20.298-15.515-4.2722-30.606-5.352-44.329-3.1635z" fill="url(#radialGradient15168)"/><path d="m126.94 115.09c0 0.0181-1.6086 3.5742-1.6086 3.5742 13.974-2.436 30.739-0.5103 42.169 2.5048 4.3029 1.153 8.7953 2.9345 12.397 6.582 2.9855 3.08 4.7613 6.2992 5.9287 10.334l1.5499-0.3163s-0.93492-6.2605-4.7691-10.58c-8.174-8.9208-21.496-11.249-31.031-12.218-8.7883-1.0772-16.167-0.57332-24.636 0.11961z" fill="#fffde5"/><path d="m122.05 143.83s1.457 3.553 2.3516 4.9078c0.89464 1.3547 1.7126 2.6839 3.3996 4.0131 1.687 1.3292 2.9395 2.0705 5.419 1.5848 2.4794-0.48567 15.311-3.055 25.65-4.1394 10.339-1.0845 21.617-1.7713 21.617-1.7713s-3.9764-4.2294-12.977-6.7599-25.485-1.952-30.293-1.1206c-4.8078 0.83143-15.167 3.2856-15.167 3.2856z" fill="url(#radialGradient15904)"/><circle cx="101.81" cy="147.72" r="5.1634" fill="#ff6733"/><circle cx="99.919" cy="137.85" r="4.9589" fill="#051f28"/><circle cx="102.08" cy="136.01" r="1.6286" fill="#fffde5"/><path d="m121.03 102.05c0.27111 1.1026 1.0664 4.6994 1.2471 5.5127 0.18074 0.81335 0.79527 1.8978 1.6628 1.6628 0.86757-0.23496 0.74105-1.3194 0.59646-2.0966-0.1446-0.7772-0.97603-4.609-1.2471-5.2597-0.27112-0.65068-0.9218-1.3737-1.5363-1.1748-0.61453 0.19882-0.75912 0.61453-0.72297 1.3556z" fill="#fffde5"/><path d="m144.61 93.965 3.0214 0.64806s0.53743-0.62012 0.32246-1.5214-1.1162-1.4221-2.9683-1.7611c-1.8521-0.339-45.715-8.7395-47.269-9.0206-1.5544-0.28112-3.0471-0.75126-4.0527-0.57586-1.0056 0.1754-1.3681 0.23386-2.97 1.5786-1.6019 1.3447-40.329 30.56-40.803 31.004-0.47357 0.44434-1.5961 1.3155-1.7364 2.3035-0.14032 0.98806 0.1637 1.3856 0.34494 1.5902 0.18124 0.20463 0.46772 0.36249 0.46772 0.36249s43.739-33.675 44.4-34.171c0.66146-0.49609 1.0087-0.3638 1.7033-0.24805 0.69453 0.11576 48.71 9.6242 49.54 9.8112z" fill="url(#linearGradient12942)"/></g><g fill="#051f28" stroke-width=".028805" aria-label="tucon"><path d="m211.49 90.326q-7.2441 0-10.749-3.4273-3.4273-3.4273-3.4273-10.516v-16.202h-2.0252q-5.2967 0-5.2967-4.7515 0-4.6736 5.2967-4.6736h2.0252v-8.4125q0-2.5705 1.5579-4.2062 1.6358-1.6358 4.2062-1.6358 2.4926 0 3.9726 1.5579 1.48 1.48 1.48 4.1283v3.8168q0 2.882-0.93471 4.7515h7.3998q5.2967 0 5.2967 4.6736 0 4.7515-5.2967 4.7515h-6.4651v16.435q0 2.3368 0.54526 3.3494 0.54525 0.93472 1.7915 0.93472 1.6358 0 2.4147-0.23368 0.85682-0.31157 2.1031-0.31157 2.1031 0 3.3494 0.77893 1.2463 0.70104 1.2463 2.9599 0 3.1936-2.0252 4.7515-2.0252 1.48-6.4651 1.48z"/><path d="m241.84 90.326q-5.141 0-9.0356-2.1031-3.8947-2.1031-6.0757-5.9199-2.1031-3.8168-2.1031-8.8798v-18.227q0-5.2967 5.6083-5.2967t5.6083 5.2967v18.071q0 3.661 1.5579 5.6862 1.5579 2.0252 4.4399 2.0252t4.4399-2.0252q1.5579-2.0252 1.5579-5.6862v-18.071q0-5.2967 5.6083-5.2967t5.6083 5.2967v18.227q0 5.0631-2.181 8.8798-2.1031 3.8168-5.9978 5.9199-3.8168 2.1031-9.0356 2.1031z"/><path d="m283.55 90.326q-9.503 0-14.099-5.4525-4.5957-5.5304-4.5957-14.566 0-9.0356 4.5957-14.566 4.5957-5.6083 14.099-5.6083 5.9978 0 8.724 1.2463 2.8042 1.2463 2.8042 4.4399 0 2.2589-1.2463 3.2715-1.2463 1.0126-3.3494 1.0126-1.48 0-2.3368-0.23368-0.85682-0.23368-1.8694-0.38947-0.93471-0.23368-2.9599-0.23368-2.7263 0-4.362 1.6358-1.5579 1.6358-2.2589 4.2062-0.62315 2.4926-0.62315 5.2188 0 2.6484 0.46736 5.2188 0.54526 2.4926 2.1031 4.1283 1.5579 1.5579 4.7515 1.5579 2.96 0 4.362-0.38947 1.4021-0.46736 2.7263-0.46736 2.1031 0 3.3494 0.77893 1.2463 0.70104 1.2463 2.9599 0 3.1936-2.8042 4.7515-2.7263 1.48-8.724 1.48z"/><path d="m317.01 90.326q-8.3346 0-13.164-4.7515-4.8294-4.7515-4.8294-15.345 0-10.671 4.8294-15.345 4.8294-4.7515 13.164-4.7515t13.164 4.7515q4.8294 4.6736 4.8294 15.345 0 10.593-4.8294 15.345-4.8294 4.7515-13.164 4.7515zm0-9.3472q2.181 0 3.661-0.85682 1.48-0.93472 2.2589-3.2715 0.85683-2.3368 0.85683-6.6209 0-4.2841-0.85683-6.6209-0.77893-2.3368-2.2589-3.1936-1.48-0.93472-3.661-0.93472-2.1031 0-3.661 0.93472-1.48 0.85682-2.3368 3.1936-0.77893 2.3368-0.77893 6.6209 0 4.2841 0.77893 6.6209 0.85683 2.3368 2.3368 3.2715 1.5579 0.85682 3.661 0.85682z"/><path d="m346.73 90.326q-5.6083 0-5.6083-5.2967v-18.694q0-7.4777 4.7515-11.84 4.8294-4.362 12.697-4.362 7.8672 0 12.619 4.362 4.8294 4.362 4.8294 11.84v18.694q0 5.2967-5.6083 5.2967t-5.6083-5.2967v-18.071q0-3.661-1.6358-5.5304-1.6358-1.9473-4.5957-1.9473t-4.5957 1.9473q-1.6358 1.8694-1.6358 5.5304v18.071q0 5.2967-5.6083 5.2967z"/></g></g></g></g></svg>
